<?xml version="1.0" encoding="utf-8"?>
<!-- Generator: Adobe Illustrator 22.0.1, SVG Export Plug-In . SVG Version: 6.00 Build 0)  -->
<svg version="1.1" id="Layer_4" xmlns="http://www.w3.org/2000/svg" xmlns:xlink="http://www.w3.org/1999/xlink" x="0px" y="0px"
	 viewBox="0 0 134.1 32" style="enable-background:new 0 0 134.1 32;" xml:space="preserve">
<style type="text/css">
	.st0{fill:#4285F4;}
</style>
<g id="XMLID_261_">
	<path id="XMLID_259_" class="st0" d="M5.2,0H0l14.8,25.6l2.6-4.5L5.2,0z"/>
	<path id="XMLID_258_" class="st0" d="M19.3,14.6L10.9,0H5.8l11.9,20.6l1.7-2.9c0.3-0.5,0.4-1,0.4-1.6C19.8,15.6,19.6,15,19.3,14.6z
		"/>
	<path id="XMLID_257_" class="st0" d="M9,16.7L0.2,32h5.1l6.3-10.9L9,16.7z"/>
	<path id="XMLID_256_" class="st0" d="M11.9,21.6L5.9,32h5.2l3.4-5.9L11.9,21.6z"/>
</g>
<g>
	<path class="st0" d="M41.2,8.8c0,1.4-0.4,2.6-1.3,3.5c-1,1-2.2,1.5-3.8,1.5c-1.5,0-2.8-0.5-3.8-1.6c-1-1-1.6-2.3-1.6-3.8
		c0-1.5,0.5-2.8,1.6-3.8c1-1,2.3-1.6,3.8-1.6c0.8,0,1.5,0.1,2.2,0.4c0.7,0.3,1.2,0.7,1.7,1.1l-1,1c-0.3-0.4-0.7-0.7-1.2-0.9
		c-0.5-0.2-1-0.3-1.6-0.3c-1.1,0-2.1,0.4-2.9,1.2c-0.8,0.8-1.2,1.8-1.2,3c0,1.2,0.4,2.2,1.2,3c0.8,0.8,1.7,1.2,2.9,1.2
		c1,0,1.9-0.3,2.6-0.9c0.7-0.6,1.1-1.4,1.2-2.4h-3.8V8h5C41.2,8.3,41.2,8.6,41.2,8.8z"/>
	<path class="st0" d="M42.8,13.6V3.2H46c1.6,0,2.8,0.5,3.8,1.4c1,1,1.4,2.2,1.4,3.7c0,1.6-0.5,2.8-1.4,3.8c-1,0.9-2.2,1.4-3.8,1.4
		H42.8z M44.1,4.5v7.8H46c1.2,0,2.2-0.3,2.8-1c0.7-0.7,1-1.6,1-2.9c0-1.2-0.3-2.2-1-2.9c-0.7-0.7-1.6-1-2.8-1H44.1z"/>
	<path class="st0" d="M62.8,8.8c0,1.4-0.4,2.6-1.3,3.5c-1,1-2.2,1.5-3.8,1.5c-1.5,0-2.8-0.5-3.8-1.6c-1-1-1.6-2.3-1.6-3.8
		c0-1.5,0.5-2.8,1.6-3.8c1-1,2.3-1.6,3.8-1.6c0.8,0,1.5,0.1,2.2,0.4c0.7,0.3,1.2,0.7,1.7,1.1l-1,1c-0.3-0.4-0.7-0.7-1.2-0.9
		c-0.5-0.2-1-0.3-1.6-0.3c-1.1,0-2.1,0.4-2.9,1.2c-0.8,0.8-1.2,1.8-1.2,3c0,1.2,0.4,2.2,1.2,3c0.8,0.8,1.7,1.2,2.9,1.2
		c1,0,1.9-0.3,2.6-0.9c0.7-0.6,1.1-1.4,1.2-2.4h-3.8V8h5C62.7,8.3,62.8,8.6,62.8,8.8z"/>
	<path class="st0" d="M67.6,13.6V3.2h3.2c1.6,0,2.8,0.5,3.8,1.4c1,1,1.4,2.2,1.4,3.7c0,1.6-0.5,2.8-1.4,3.8c-1,0.9-2.2,1.4-3.8,1.4
		H67.6z M68.9,4.5v7.8h1.8c1.2,0,2.2-0.3,2.8-1c0.7-0.7,1-1.6,1-2.9c0-1.2-0.3-2.2-1-2.9c-0.7-0.7-1.6-1-2.8-1H68.9z"/>
	<path class="st0" d="M80.3,13.8c-1,0-1.9-0.4-2.6-1.1c-0.7-0.7-1-1.6-1-2.7c0-1.1,0.3-2,1-2.7c0.7-0.7,1.5-1.1,2.5-1.1
		c1.1,0,1.9,0.3,2.5,1c0.6,0.7,0.9,1.6,0.9,2.9l0,0.1h-5.6c0,0.7,0.3,1.3,0.7,1.7c0.4,0.4,1,0.6,1.6,0.6c0.8,0,1.5-0.4,2-1.3
		l1.2,0.6c-0.3,0.6-0.8,1.1-1.3,1.4C81.6,13.6,81,13.8,80.3,13.8z M78.2,9.2h4.1c0-0.5-0.2-0.9-0.6-1.2c-0.4-0.3-0.8-0.5-1.5-0.5
		c-0.5,0-0.9,0.2-1.3,0.5C78.5,8.3,78.3,8.7,78.2,9.2z"/>
	<path class="st0" d="M88.1,13.6h-1.3L84,6.5h1.4l2.1,5.5h0l2.1-5.5H91L88.1,13.6z"/>
	<path class="st0" d="M95.2,3.1c0.5,0,0.9,0.1,1.2,0.2L96,4.5c-0.2-0.1-0.5-0.2-0.8-0.2c-0.3,0-0.6,0.1-0.8,0.3
		c-0.2,0.2-0.3,0.5-0.3,0.9v0.9H96v1.2h-1.9v5.9h-1.3V7.7h-1.3V6.5h1.3v-1c0-0.7,0.2-1.3,0.7-1.7C93.9,3.3,94.5,3.1,95.2,3.1z"/>
	<path class="st0" d="M100,13.8c-1,0-1.9-0.4-2.6-1.1c-0.7-0.7-1-1.6-1-2.7c0-1.1,0.3-2,1-2.7c0.7-0.7,1.5-1.1,2.5-1.1
		c1.1,0,1.9,0.3,2.5,1c0.6,0.7,0.9,1.6,0.9,2.9l0,0.1h-5.6c0,0.7,0.3,1.3,0.7,1.7c0.4,0.4,1,0.6,1.6,0.6c0.8,0,1.5-0.4,2-1.3
		l1.2,0.6c-0.3,0.6-0.8,1.1-1.3,1.4C101.3,13.6,100.7,13.8,100,13.8z M97.8,9.2h4.1c0-0.5-0.2-0.9-0.6-1.2c-0.4-0.3-0.8-0.5-1.5-0.5
		c-0.5,0-0.9,0.2-1.3,0.5C98.2,8.3,98,8.7,97.8,9.2z"/>
	<path class="st0" d="M110,11.6c0,0.6-0.3,1.1-0.8,1.6c-0.5,0.4-1.2,0.6-2,0.6c-0.7,0-1.3-0.2-1.9-0.6c-0.5-0.4-0.9-0.9-1.2-1.5
		l1.2-0.5c0.2,0.4,0.4,0.8,0.8,1c0.3,0.2,0.7,0.4,1.1,0.4c0.4,0,0.8-0.1,1.1-0.3c0.3-0.2,0.4-0.4,0.4-0.7c0-0.5-0.3-0.8-1-1
		l-1.2-0.3c-1.4-0.3-2.1-1-2.1-2c0-0.6,0.3-1.2,0.8-1.6c0.5-0.4,1.2-0.6,2-0.6c0.6,0,1.2,0.1,1.7,0.4c0.5,0.3,0.9,0.7,1.1,1.2
		l-1.2,0.5c-0.1-0.3-0.4-0.5-0.7-0.7c-0.3-0.2-0.6-0.3-1-0.3c-0.3,0-0.7,0.1-0.9,0.3s-0.4,0.4-0.4,0.6c0,0.4,0.4,0.7,1.1,0.9
		l1.1,0.3C109.3,9.8,110,10.5,110,11.6z"/>
	<path class="st0" d="M113.9,13.7c-0.6,0-1.1-0.2-1.4-0.5c-0.4-0.4-0.6-0.9-0.6-1.5v-4h-1.2V6.5h1.2V4.3h1.3v2.2h1.7v1.2h-1.7v3.5
		c0,0.5,0.1,0.8,0.3,1c0.2,0.2,0.4,0.3,0.6,0.3c0.1,0,0.2,0,0.3,0c0.1,0,0.2-0.1,0.3-0.1l0.4,1.2C114.8,13.6,114.4,13.7,113.9,13.7z
		"/>
	<path class="st0" d="M37.6,25.2c0,0.9-0.3,1.6-1,2.2c-0.7,0.5-1.5,0.8-2.5,0.8c-0.9,0-1.6-0.3-2.3-0.8c-0.7-0.5-1.1-1.2-1.4-2.1
		l1.3-0.5c0.1,0.3,0.2,0.6,0.4,0.8c0.2,0.3,0.3,0.5,0.5,0.6c0.2,0.2,0.4,0.3,0.7,0.4c0.3,0.1,0.5,0.2,0.8,0.2c0.6,0,1.1-0.2,1.5-0.5
		c0.4-0.3,0.6-0.7,0.6-1.3c0-0.4-0.2-0.8-0.5-1.1c-0.3-0.3-0.9-0.6-1.7-0.9c-0.8-0.3-1.3-0.5-1.5-0.6c-1.1-0.6-1.6-1.4-1.6-2.5
		c0-0.8,0.3-1.4,0.9-2c0.6-0.5,1.4-0.8,2.3-0.8c0.8,0,1.5,0.2,2.1,0.6c0.6,0.4,1,0.9,1.2,1.5L36.1,20c-0.1-0.4-0.3-0.7-0.7-1
		c-0.3-0.3-0.8-0.4-1.3-0.4c-0.5,0-1,0.1-1.3,0.4c-0.4,0.3-0.5,0.6-0.5,1.1c0,0.4,0.1,0.7,0.4,0.9c0.3,0.3,1,0.6,2,0.9
		c1.1,0.4,1.8,0.8,2.2,1.3C37.4,23.8,37.6,24.4,37.6,25.2z"/>
	<path class="st0" d="M39.7,27.9h-1.5l3.9-10.3h1.5l3.9,10.3h-1.5l-1-2.8h-4.4L39.7,27.9z M42.8,19.2l-1.7,4.7h3.4L42.8,19.2
		L42.8,19.2z"/>
	<path class="st0" d="M48.7,27.9V17.6h3.2c1.6,0,2.8,0.5,3.8,1.4c1,1,1.4,2.2,1.4,3.7c0,1.6-0.5,2.8-1.4,3.8c-1,0.9-2.2,1.4-3.8,1.4
		H48.7z M50.1,18.8v7.8h1.8c1.2,0,2.2-0.3,2.8-1c0.7-0.7,1-1.6,1-2.9c0-1.2-0.3-2.2-1-2.9c-0.7-0.7-1.6-1-2.8-1H50.1z"/>
	<path class="st0" d="M63.6,28.2c-1.5,0-2.8-0.5-3.8-1.5c-1-1-1.5-2.3-1.5-3.9c0-1.5,0.5-2.8,1.5-3.8c1-1,2.3-1.6,3.8-1.6
		c1.6,0,2.8,0.6,3.8,1.7l-1,0.9c-0.7-0.9-1.7-1.3-2.8-1.3c-1.1,0-2.1,0.4-2.9,1.2c-0.8,0.8-1.1,1.8-1.1,3c0,1.2,0.4,2.2,1.1,3
		c0.8,0.8,1.7,1.2,2.9,1.2c1.2,0,2.3-0.5,3.1-1.5l1,0.9c-0.5,0.6-1.1,1-1.8,1.4C65.2,28,64.4,28.2,63.6,28.2z"/>
	<path class="st0" d="M78.3,26.7v1.3H72v-1.3l2.6-2.6c0.9-0.9,1.5-1.5,1.8-2c0.3-0.4,0.5-0.9,0.5-1.4c0-0.4-0.2-0.8-0.5-1.1
		c-0.3-0.3-0.8-0.5-1.3-0.5c-0.5,0-0.8,0.1-1.2,0.4c-0.3,0.3-0.5,0.6-0.6,1L72,20c0.2-0.6,0.6-1.1,1.1-1.5c0.5-0.4,1.2-0.6,1.9-0.6
		c0.9,0,1.6,0.3,2.2,0.8c0.6,0.5,0.9,1.2,0.9,2c0,1-0.5,2-1.6,3.1l-2.9,2.9H78.3z"/>
	<path class="st0" d="M79.6,23c0-1.5,0.4-2.7,1.1-3.7c0.7-1,1.7-1.5,2.9-1.5s2.1,0.5,2.9,1.5c0.7,1,1.1,2.2,1.1,3.7
		c0,1.5-0.4,2.7-1.1,3.7c-0.7,1-1.7,1.5-2.9,1.5s-2.1-0.5-2.9-1.5C79.9,25.7,79.6,24.5,79.6,23z M86.2,23c0-1.1-0.2-2.1-0.7-2.8
		c-0.5-0.7-1.1-1.1-1.9-1.1c-0.8,0-1.4,0.4-1.9,1.1c-0.5,0.7-0.7,1.7-0.7,2.8c0,1.1,0.2,2.1,0.7,2.8c0.5,0.7,1.1,1.1,1.9,1.1
		c0.8,0,1.4-0.4,1.9-1.1C85.9,25,86.2,24.1,86.2,23z"/>
	<path class="st0" d="M92.3,18v9.9H91v-8.2l-1.9,0.8l-0.5-1.1l2.9-1.4H92.3z"/>
	<path class="st0" d="M100.8,25.2c0,0.8-0.3,1.6-1,2.1c-0.7,0.6-1.5,0.9-2.4,0.9c-0.9,0-1.7-0.3-2.4-0.9c-0.6-0.6-1-1.3-1-2.1
		c0-0.5,0.1-1,0.4-1.4c0.3-0.4,0.7-0.8,1.2-1v-0.1c-0.4-0.3-0.7-0.6-0.9-0.9c-0.2-0.4-0.4-0.8-0.4-1.2c0-0.8,0.3-1.5,0.9-2
		c0.6-0.5,1.3-0.8,2.2-0.8c0.9,0,1.6,0.3,2.2,0.8c0.6,0.5,0.9,1.2,0.9,2c0,0.4-0.1,0.8-0.4,1.2c-0.2,0.4-0.5,0.7-0.9,0.9v0.1
		c0.5,0.3,0.9,0.6,1.2,1C100.7,24.2,100.8,24.7,100.8,25.2z M95.5,25.1c0,0.3,0.1,0.5,0.2,0.7c0.1,0.2,0.2,0.4,0.4,0.6
		c0.2,0.2,0.4,0.3,0.6,0.4c0.2,0.1,0.5,0.1,0.8,0.1c0.3,0,0.6,0,0.8-0.1c0.2-0.1,0.5-0.2,0.6-0.4c0.2-0.2,0.3-0.3,0.4-0.6
		c0.1-0.2,0.2-0.4,0.2-0.7c0-0.5-0.2-0.9-0.6-1.2c-0.4-0.3-0.9-0.5-1.4-0.5c-0.6,0-1,0.2-1.4,0.5C95.7,24.2,95.5,24.6,95.5,25.1z
		 M95.8,20.6c0,0.5,0.2,0.8,0.5,1.1c0.3,0.3,0.7,0.4,1.2,0.4c0.5,0,0.9-0.1,1.2-0.4c0.3-0.3,0.5-0.7,0.5-1.1c0-0.5-0.2-0.8-0.5-1.1
		c-0.3-0.3-0.7-0.4-1.2-0.4c-0.5,0-0.9,0.1-1.2,0.4C96,19.8,95.8,20.1,95.8,20.6z"/>
</g>
</svg>
