<?xml version="1.0" encoding="utf-8"?>
<!-- Generator: Adobe Illustrator 22.0.1, SVG Export Plug-In . SVG Version: 6.00 Build 0)  -->
<svg version="1.1" id="Layer_4" xmlns="http://www.w3.org/2000/svg" xmlns:xlink="http://www.w3.org/1999/xlink" x="0px" y="0px"
	 viewBox="0 0 536.9 128" style="enable-background:new 0 0 536.9 128;" xml:space="preserve">
<style type="text/css">
	.st0{fill:#FFFFFF;}
	.st1{fill:none;}
	.st2{fill:#FFC107;}
	.st3{fill:#0F9D58;}
	.st4{opacity:0.2;fill:#BF360C;enable-background:new    ;}
	.st5{opacity:0.2;fill:#263238;enable-background:new    ;}
	.st6{opacity:0.2;fill:#FFFFFF;enable-background:new    ;}
	.st7{fill:url(#XMLID_7_);}
	.st8{fill:url(#XMLID_34_);}
	.st9{fill:#4285F4;}
	.st10{fill:#DB4437;}
	.st11{opacity:0.2;fill:#1A237E;enable-background:new    ;}
	.st12{opacity:0.2;fill:#3E2723;enable-background:new    ;}
	.st13{fill:url(#XMLID_35_);}
</style>
<g>
	<path class="st0" d="M174.6,30.2c0,5.8-1.7,10.4-5.1,13.8c-3.8,4.1-8.9,6.1-15.2,6.1c-6,0-11.1-2.1-15.2-6.2
		c-4.2-4.2-6.2-9.3-6.2-15.3c0-6.1,2.1-11.2,6.2-15.3c4.2-4.2,9.2-6.2,15.2-6.2c3,0,5.9,0.5,8.6,1.6c2.7,1.1,4.9,2.6,6.6,4.6
		l-3.8,3.8c-1.3-1.5-2.9-2.7-4.9-3.6c-2-0.9-4.2-1.3-6.5-1.3c-4.5,0-8.3,1.6-11.4,4.7c-3.1,3.2-4.6,7.1-4.6,11.8
		c0,4.7,1.5,8.7,4.6,11.8c3.1,3.1,6.9,4.7,11.4,4.7c4.1,0,7.5-1.2,10.3-3.5c2.7-2.3,4.3-5.5,4.7-9.5h-15v-5h20
		C174.5,28.1,174.6,29.2,174.6,30.2z"/>
	<path class="st0" d="M181.1,49.1V7.8h12.6c6.3,0,11.4,1.9,15.2,5.7c3.8,3.8,5.7,8.8,5.7,14.9c0,6.2-1.9,11.2-5.7,15
		c-3.8,3.8-8.9,5.7-15.2,5.7H181.1z M186.4,12.9V44h7.3c4.8,0,8.6-1.4,11.4-4.1c2.8-2.7,4.2-6.6,4.2-11.4c0-4.8-1.4-8.6-4.2-11.4
		c-2.8-2.8-6.6-4.2-11.4-4.2H186.4z"/>
	<path class="st0" d="M260.6,30.2c0,5.8-1.7,10.4-5.1,13.8c-3.8,4.1-8.9,6.1-15.2,6.1c-6,0-11.1-2.1-15.2-6.2
		c-4.2-4.2-6.2-9.3-6.2-15.3c0-6.1,2.1-11.2,6.2-15.3c4.2-4.2,9.2-6.2,15.2-6.2c3,0,5.9,0.5,8.6,1.6c2.7,1.1,4.9,2.6,6.6,4.6
		l-3.8,3.8c-1.3-1.5-2.9-2.7-4.9-3.6c-2-0.9-4.2-1.3-6.5-1.3c-4.5,0-8.3,1.6-11.4,4.7c-3.1,3.2-4.6,7.1-4.6,11.8
		c0,4.7,1.5,8.7,4.6,11.8c3.1,3.1,6.9,4.7,11.4,4.7c4.1,0,7.5-1.2,10.3-3.5c2.7-2.3,4.3-5.5,4.7-9.5h-15v-5h20
		C260.6,28.1,260.6,29.2,260.6,30.2z"/>
	<path class="st0" d="M279.8,49.1V7.8h12.6c6.3,0,11.4,1.9,15.2,5.7c3.8,3.8,5.7,8.8,5.7,14.9c0,6.2-1.9,11.2-5.7,15
		c-3.8,3.8-8.9,5.7-15.2,5.7H279.8z M285.1,12.9V44h7.3c4.8,0,8.6-1.4,11.4-4.1c2.8-2.7,4.2-6.6,4.2-11.4c0-4.8-1.4-8.6-4.2-11.4
		c-2.8-2.8-6.6-4.2-11.4-4.2H285.1z"/>
	<path class="st0" d="M330.5,50c-4.2,0-7.6-1.4-10.3-4.3c-2.7-2.8-4-6.4-4-10.8c0-4.3,1.3-7.9,3.9-10.8c2.6-2.9,6-4.3,10-4.3
		c4.2,0,7.5,1.4,10,4.1c2.5,2.7,3.7,6.5,3.7,11.4l-0.1,0.6h-22.2c0.1,2.8,1,5,2.8,6.7c1.8,1.7,3.9,2.5,6.3,2.5c3.4,0,6-1.7,8-5.1
		l4.7,2.3c-1.3,2.4-3,4.2-5.3,5.6C335.9,49.4,333.4,50,330.5,50z M322.1,31.6h16.2c-0.2-2-1-3.6-2.4-4.9c-1.4-1.3-3.4-1.9-5.8-1.9
		c-2,0-3.7,0.6-5.2,1.8C323.5,27.9,322.5,29.5,322.1,31.6z"/>
	<path class="st0" d="M361.9,49.1h-5.3l-11.4-28.3h5.8l8.3,21.9h0.1l8.4-21.9h5.7L361.9,49.1z"/>
	<path class="st0" d="M389.9,7.4c1.9,0,3.5,0.3,4.7,1l-1.4,4.7c-0.9-0.5-2-0.7-3.1-0.7c-1.3,0-2.4,0.5-3.2,1.4
		c-0.8,0.9-1.2,2.1-1.2,3.6v3.6h7.4v4.8h-7.4v23.4h-5.3V25.7h-5.3v-4.8h5.3v-4.1c0-2.8,0.9-5.1,2.7-6.8
		C384.8,8.2,387.1,7.4,389.9,7.4z"/>
	<path class="st0" d="M409.1,50c-4.2,0-7.6-1.4-10.3-4.3c-2.7-2.8-4-6.4-4-10.8c0-4.3,1.3-7.9,3.9-10.8c2.6-2.9,6-4.3,10-4.3
		c4.2,0,7.5,1.4,10,4.1c2.5,2.7,3.7,6.5,3.7,11.4l-0.1,0.6h-22.2c0.1,2.8,1,5,2.8,6.7c1.8,1.7,3.9,2.5,6.3,2.5c3.4,0,6-1.7,8-5.1
		l4.7,2.3c-1.3,2.4-3,4.2-5.3,5.6C414.5,49.4,411.9,50,409.1,50z M400.6,31.6h16.2c-0.2-2-1-3.6-2.4-4.9c-1.4-1.3-3.4-1.9-5.8-1.9
		c-2,0-3.7,0.6-5.2,1.8C402,27.9,401.1,29.5,400.6,31.6z"/>
	<path class="st0" d="M449.2,41.3c0,2.5-1.1,4.5-3.2,6.2c-2.2,1.7-4.9,2.5-8.1,2.5c-2.8,0-5.3-0.7-7.5-2.2c-2.2-1.5-3.7-3.4-4.6-5.9
		l4.7-2c0.7,1.7,1.7,3,3,4c1.3,0.9,2.8,1.4,4.4,1.4c1.7,0,3.1-0.4,4.2-1.1c1.1-0.7,1.7-1.6,1.7-2.6c0-1.8-1.4-3.1-4.2-4l-4.8-1.2
		c-5.5-1.4-8.2-4-8.2-8c0-2.6,1-4.6,3.1-6.2c2.1-1.6,4.8-2.3,8-2.3c2.5,0,4.8,0.6,6.8,1.8c2,1.2,3.4,2.8,4.2,4.8l-4.7,2
		c-0.5-1.2-1.4-2.1-2.6-2.8c-1.2-0.7-2.6-1-4.1-1c-1.4,0-2.6,0.3-3.7,1s-1.6,1.5-1.6,2.5c0,1.6,1.5,2.8,4.6,3.5l4.3,1.1
		C446.4,34.2,449.2,37,449.2,41.3z"/>
	<path class="st0" d="M464.7,49.6c-2.3,0-4.2-0.7-5.7-2.1c-1.5-1.4-2.3-3.4-2.3-5.9V25.7h-5v-4.8h5v-8.7h5.3v8.7h6.9v4.8H462v14.1
		c0,1.9,0.4,3.2,1.1,3.8c0.7,0.7,1.6,1,2.5,1c0.4,0,0.8,0,1.2-0.1c0.4-0.1,0.8-0.2,1.1-0.4l1.7,4.7
		C468.2,49.3,466.6,49.6,464.7,49.6z"/>
	<path class="st0" d="M160.4,107.3c0,3.6-1.3,6.5-4,8.7c-2.7,2.2-6,3.2-9.8,3.2c-3.4,0-6.4-1-9.1-3c-2.6-2-4.4-4.7-5.4-8.2l5.1-2.1
		c0.3,1.2,0.8,2.3,1.4,3.3c0.6,1,1.3,1.9,2.2,2.6c0.8,0.7,1.7,1.3,2.7,1.7c1,0.4,2.1,0.6,3.2,0.6c2.4,0,4.4-0.6,5.9-1.9
		c1.5-1.2,2.3-2.9,2.3-5c0-1.7-0.6-3.2-1.9-4.4c-1.2-1.2-3.4-2.3-6.7-3.5c-3.3-1.2-5.4-2-6.2-2.4c-4.4-2.2-6.6-5.5-6.6-9.9
		c0-3,1.2-5.6,3.6-7.8c2.5-2.2,5.5-3.2,9.1-3.2c3.2,0,5.9,0.8,8.2,2.4c2.3,1.6,3.8,3.6,4.6,5.9l-5,2.1c-0.5-1.5-1.4-2.8-2.7-3.8
		c-1.4-1-3-1.5-5-1.5c-2.1,0-3.8,0.6-5.2,1.7c-1.4,1.1-2.1,2.5-2.1,4.2c0,1.4,0.6,2.7,1.7,3.7c1.2,1,3.9,2.3,8,3.7
		c4.2,1.4,7.2,3.2,9,5.2C159.5,101.8,160.4,104.3,160.4,107.3z"/>
	<path class="st0" d="M168.6,118.3h-5.9L178.3,77h6l15.6,41.3H194l-4-11.2h-17.4L168.6,118.3z M181.2,83.6l-6.7,18.6h13.7l-6.7-18.6
		H181.2z"/>
	<path class="st0" d="M204.7,118.3V77h12.6c6.3,0,11.4,1.9,15.2,5.7c3.8,3.8,5.7,8.8,5.7,14.9c0,6.2-1.9,11.2-5.7,15
		c-3.8,3.8-8.9,5.7-15.2,5.7H204.7z M210,82.1v31.1h7.3c4.8,0,8.6-1.4,11.4-4.1c2.8-2.7,4.2-6.6,4.2-11.4c0-4.8-1.4-8.7-4.2-11.4
		c-2.8-2.8-6.6-4.2-11.4-4.2H210z"/>
	<path class="st0" d="M264,119.2c-6.1,0-11.2-2.1-15.3-6.2c-4.1-4.1-6.1-9.2-6.1-15.4c0-6.2,2-11.3,6.1-15.3
		c4.1-4.2,9.2-6.2,15.3-6.2c6.2,0,11.3,2.2,15.2,6.7l-3.8,3.7c-3-3.6-6.7-5.4-11.4-5.4c-4.6,0-8.4,1.5-11.5,4.6c-3,3-4.6,7-4.6,11.9
		c0,4.9,1.5,8.8,4.6,11.9c3.1,3.1,6.9,4.6,11.5,4.6c4.8,0,9-2,12.5-6.1l3.9,3.7c-2,2.3-4.4,4.2-7.2,5.5
		C270.3,118.6,267.3,119.2,264,119.2z"/>
	<path class="st0" d="M322.6,113.2v5.1h-25.1V113l10.2-10.3c3.4-3.5,5.8-6.1,7.1-7.9c1.3-1.7,2-3.6,2-5.5c0-1.7-0.7-3.2-2-4.4
		c-1.3-1.2-3.1-1.8-5.2-1.8c-1.8,0-3.4,0.5-4.7,1.6c-1.3,1.1-2.2,2.4-2.5,3.9l-4.8-2c0.8-2.4,2.2-4.5,4.4-6.1s4.8-2.5,7.7-2.5
		c3.6,0,6.6,1.1,8.9,3.3c2.4,2.2,3.6,4.9,3.6,8.1c0,3.8-2.1,7.9-6.3,12.3l-11.5,11.6H322.6z"/>
	<path class="st0" d="M327.7,98.6c0-6,1.5-10.9,4.4-14.8c3-3.9,6.8-5.8,11.4-5.8s8.5,2,11.4,5.9c3,3.9,4.4,8.8,4.4,14.8
		c0,5.9-1.5,10.9-4.4,14.8c-3,3.9-6.8,5.8-11.4,5.8s-8.5-1.9-11.4-5.8C329.1,109.5,327.7,104.5,327.7,98.6z M354,98.6
		c0-4.5-1-8.3-2.9-11.2c-1.9-2.9-4.4-4.4-7.6-4.4c-3.2,0-5.7,1.5-7.6,4.4c-1.9,2.9-2.9,6.7-2.9,11.2c0,4.5,1,8.3,2.9,11.2
		c1.9,2.9,4.4,4.3,7.6,4.3c3.2,0,5.7-1.5,7.6-4.4C353,106.8,354,103.1,354,98.6z"/>
	<path class="st0" d="M378.6,78.9v39.4h-5.3V85.5l-7.7,3.3l-2-4.5l11.6-5.4H378.6z"/>
	<path class="st0" d="M412.5,107.4c0,3.4-1.3,6.2-3.9,8.4c-2.6,2.3-5.8,3.4-9.5,3.4c-3.7,0-6.9-1.1-9.5-3.4c-2.6-2.2-3.9-5-3.9-8.4
		c0-2.1,0.6-4,1.7-5.7c1.1-1.7,2.7-3.1,4.8-4.1v-0.2c-1.5-1-2.8-2.2-3.7-3.7c-0.9-1.5-1.4-3-1.4-4.6c0-3.2,1.1-5.9,3.4-8
		c2.2-2.1,5.1-3.2,8.7-3.2c3.5,0,6.4,1.1,8.7,3.2c2.3,2.2,3.4,4.8,3.4,8c0,1.6-0.5,3.2-1.4,4.6c-0.9,1.5-2.2,2.7-3.7,3.7v0.2
		c2.1,1,3.7,2.4,4.8,4.1C412,103.5,412.5,105.3,412.5,107.4z M391.2,107.1c0,1,0.2,2,0.6,2.8c0.4,0.8,1,1.6,1.7,2.2
		c0.7,0.6,1.5,1.1,2.5,1.5c1,0.3,2,0.5,3.2,0.5c1.2,0,2.2-0.2,3.2-0.5c1-0.3,1.8-0.8,2.5-1.5c0.7-0.6,1.3-1.4,1.7-2.2
		s0.6-1.8,0.6-2.8c0-2-0.8-3.7-2.3-5c-1.5-1.3-3.4-2-5.7-2c-2.2,0-4.1,0.7-5.7,2C392,103.5,391.2,105.2,391.2,107.1z M392.5,89
		c0,1.8,0.6,3.3,1.8,4.5c1.2,1.1,2.8,1.7,4.8,1.7c2,0,3.6-0.6,4.8-1.7c1.2-1.1,1.8-2.6,1.8-4.5s-0.6-3.3-1.8-4.4
		c-1.2-1.1-2.8-1.6-4.8-1.6c-2,0-3.6,0.5-4.8,1.6C393.1,85.7,392.5,87.2,392.5,89z"/>
</g>
<g id="XMLID_2_">
	<g id="XMLID_3_">
		<g id="XMLID_4_">
			<path id="XMLID_33_" class="st1" d="M78.7,58L45.1,0H0.3l37,64l-37,64h44.8l33.5-58C80.8,66.3,80.8,61.7,78.7,58z"/>
			<path id="XMLID_32_" class="st2" d="M59.4,102.3L48.8,83.9L23.3,128h21.8l14.6-25.2L59.4,102.3z"/>
			<path id="XMLID_31_" class="st1" d="M78.7,58L45.1,0H0.3l37,64l-37,64h44.8l33.5-58C80.8,66.3,80.8,61.7,78.7,58z"/>
			<path id="XMLID_30_" class="st3" d="M37.3,64l11.5,19.9L23.3,128h-23L37.3,64z"/>
			<path id="XMLID_29_" class="st1" d="M78.7,58L45.1,0H0.3l37,64l-37,64h44.8l33.5-58C80.8,66.3,80.8,61.7,78.7,58z"/>
			<path id="XMLID_28_" class="st4" d="M45.1,127H23.8l-0.5,1h21.8l14.6-25.2l-0.3-0.5L45.1,127z"/>
			<path id="XMLID_27_" class="st1" d="M78.7,58L45.1,0H0.3l37,64l-37,64h44.8l33.5-58C80.8,66.3,80.8,61.7,78.7,58z"/>
			<path id="XMLID_26_" class="st5" d="M0.8,127l-0.5,1h23l0.5-1H0.8z"/>
			<path id="XMLID_25_" class="st1" d="M78.7,58L45.1,0H0.3l37,64l-37,64h44.8l33.5-58C80.8,66.3,80.8,61.7,78.7,58z"/>
			<path id="XMLID_24_" class="st6" d="M0.3,128h0.5l36.8-63.5L37.3,64L0.3,128z"/>
			<path id="XMLID_23_" class="st1" d="M78.7,58L45.1,0H0.3l37,64l-37,64h44.8l33.5-58C80.8,66.3,80.8,61.7,78.7,58z"/>
			
				<radialGradient id="XMLID_7_" cx="59.537" cy="567.65" r="44.264" gradientTransform="matrix(1 0 0 1 0 -465.276)" gradientUnits="userSpaceOnUse">
				<stop  offset="0" style="stop-color:#BF360C;stop-opacity:0.2"/>
				<stop  offset="1" style="stop-color:#BF360C;stop-opacity:2.000000e-02"/>
			</radialGradient>
			<path id="XMLID_22_" class="st7" d="M59.7,102.8L48.8,83.9l-2.7,4.6L59.7,102.8z"/>
			<path id="XMLID_21_" class="st1" d="M78.7,58L45.1,0H0.3l37,64l-37,64h44.8l33.5-58C80.8,66.3,80.8,61.7,78.7,58z"/>
			
				<radialGradient id="XMLID_34_" cx="59.411" cy="567.93" r="44.623" gradientTransform="matrix(1 0 0 1 0 -465.276)" gradientUnits="userSpaceOnUse">
				<stop  offset="0" style="stop-color:#263238;stop-opacity:0.2"/>
				<stop  offset="1" style="stop-color:#263238;stop-opacity:2.000000e-02"/>
			</radialGradient>
			<path id="XMLID_20_" class="st8" d="M46.1,88.5l2.7-4.6L37.3,64l-5.5,9.5L46.1,88.5z"/>
			<path id="XMLID_19_" class="st1" d="M78.7,58L45.1,0H0.3l37,64l-37,64h44.8l33.5-58C80.8,66.3,80.8,61.7,78.7,58z"/>
			<g id="XMLID_16_">
				<g id="XMLID_17_">
					<path id="XMLID_18_" class="st9" d="M23.3,0h-23l59.4,102.8l11.5-19.9L23.3,0z"/>
				</g>
			</g>
			<path id="XMLID_15_" class="st1" d="M78.7,58L45.1,0H0.3l37,64l-37,64h44.8l33.5-58C80.8,66.3,80.8,61.7,78.7,58z"/>
			<path id="XMLID_14_" class="st10" d="M78.7,70c2.1-3.7,2.1-8.3,0-12L45.1,0H23.3l47.9,82.9L78.7,70z"/>
			<path id="XMLID_13_" class="st1" d="M78.7,58L45.1,0H0.3l37,64l-37,64h44.8l33.5-58C80.8,66.3,80.8,61.7,78.7,58z"/>
			<path id="XMLID_12_" class="st11" d="M71.2,82.9l-0.3-0.5l-11.2,19.4L0.8,0H0.3l59.4,102.8L71.2,82.9z"/>
			<path id="XMLID_11_" class="st1" d="M78.7,58L45.1,0H0.3l37,64l-37,64h44.8l33.5-58C80.8,66.3,80.8,61.7,78.7,58z"/>
			<path id="XMLID_10_" class="st6" d="M45.1,1l33.5,58c1,1.7,1.5,3.6,1.6,5.5c0.1-2.2-0.4-4.5-1.6-6.5L45.1,0H0.3l0.6,1
				C0.9,1,45.1,1,45.1,1z"/>
			<path id="XMLID_9_" class="st1" d="M78.7,58L45.1,0H0.3l37,64l-37,64h44.8l33.5-58C80.8,66.3,80.8,61.7,78.7,58z"/>
			<path id="XMLID_8_" class="st12" d="M71.2,82.9L78.7,70c1.2-2,1.7-4.3,1.6-6.5c-0.1,1.9-0.6,3.8-1.6,5.5L71,82.4L71.2,82.9z"/>
			<path id="XMLID_6_" class="st1" d="M78.7,58L45.1,0H0.3l37,64l-37,64h44.8l33.5-58C80.8,66.3,80.8,61.7,78.7,58z"/>
			
				<radialGradient id="XMLID_35_" cx="-0.74" cy="466.276" r="134.35" gradientTransform="matrix(1 0 0 1 0 -465.276)" gradientUnits="userSpaceOnUse">
				<stop  offset="0" style="stop-color:#FFFFFF;stop-opacity:0.1"/>
				<stop  offset="1" style="stop-color:#FFFFFF;stop-opacity:0"/>
			</radialGradient>
			<path id="XMLID_5_" class="st13" d="M78.7,58L45.1,0H0.3l37,64l-37,64h44.8l33.5-58C80.8,66.3,80.8,61.7,78.7,58z"/>
		</g>
	</g>
</g>
</svg>
