<?xml version="1.0" encoding="utf-8"?>
<!-- Generator: Adobe Illustrator 22.0.1, SVG Export Plug-In . SVG Version: 6.00 Build 0)  -->
<svg version="1.1" id="Layer_4" xmlns="http://www.w3.org/2000/svg" xmlns:xlink="http://www.w3.org/1999/xlink" x="0px" y="0px"
	 viewBox="0 0 1735.8 200" style="enable-background:new 0 0 1735.8 200;" xml:space="preserve">
<style type="text/css">
	.st0{fill:#757575;}
	.st1{opacity:0.54;}
	.st2{fill-rule:evenodd;clip-rule:evenodd;}
</style>
<g id="XMLID_6_">
	<path id="XMLID_3_" class="st0" d="M359.9,104.4c0,22-6.5,39.6-19.6,52.7c-14.8,15.6-34.1,23.4-57.9,23.4
		c-22.8,0-42.1-7.9-58.1-23.7c-15.9-15.8-23.9-35.4-23.9-58.7s8-42.9,23.9-58.7s35.3-23.7,58.1-23.7c11.3,0,22.1,2.2,32.4,6.6
		c10.3,4.4,18.5,10.3,24.7,17.6l-13.9,13.9C315.1,41.2,300.7,35,282.3,35c-16.6,0-31,5.8-43.1,17.5S221,79.3,221,98
		s6.1,33.8,18.2,45.5s26.5,17.5,43.1,17.5c17.6,0,32.3-5.9,44.1-17.6c7.6-7.6,12-18.3,13.2-31.9h-57.3v-19h76.4
		C359.5,96.6,359.9,100.6,359.9,104.4L359.9,104.4z"/>
	<path id="XMLID_20_" class="st0" d="M380.3,176.9V19.1h48.2c24.2,0,43.6,7.3,58.2,21.9c14.5,14.6,21.8,33.6,21.8,57
		s-7.3,42.3-21.8,57c-14.5,14.6-33.9,21.9-58.2,21.9H380.3z M400.6,157.5h28c18.2,0,32.6-5.2,43.3-15.6c10.6-10.4,16-25,16-43.8
		c0-18.7-5.3-33.2-16-43.7s-25.1-15.8-43.3-15.8h-28V157.5z"/>
	<path id="XMLID_23_" class="st0" d="M681,104.4c0,22-6.5,39.6-19.6,52.7c-14.8,15.6-34.1,23.4-57.9,23.4
		c-22.8,0-42.1-7.9-58.1-23.7c-15.9-15.8-23.9-35.4-23.9-58.7s8-42.9,23.9-58.7s35.3-23.7,58.1-23.7c11.3,0,22.1,2.2,32.4,6.6
		c10.3,4.4,18.5,10.3,24.7,17.6l-13.9,13.9C636.2,41.2,621.8,35,603.4,35c-16.6,0-31,5.8-43.1,17.5S542.1,79.3,542.1,98
		s6.1,33.8,18.2,45.5s26.5,17.5,43.1,17.5c17.6,0,32.3-5.9,44.1-17.6c7.6-7.6,12-18.3,13.2-31.9h-57.3v-19h76.4
		C680.6,96.6,681,100.6,681,104.4L681,104.4z"/>
	<g class="st1">
		<path class="st2" d="M878.7,51.6c-6.5-6.8-13.8-12.1-22.8-14.9c-40.4-12.8-78.8,14.1-82.8,51.7c-1.7,15.7-0.1,30.6,8.4,43.9
			c14.3,22.3,35,32.1,61.5,29.6c14.9-1.4,27.6-7.5,37.9-18.3c7.7-8,11.3-17.7,12.5-28.5c0.4-3.3-0.8-4-3.8-4
			c-16.1,0.1-32.2-0.1-48.4,0.1c-4.1,0-6-1-5.5-5.3c0.3-2.9,0.2-5.8,0-8.7c-0.3-3.5,1.3-4.5,4.6-4.4c22.5,0.1,45,0.1,67.5,0
			c2.6,0,4.6,0.3,4.8,3.5c0.9,16.2-0.2,32-8.5,46.4c-10.4,18.1-25.7,30.3-46.1,35.2c-25.9,6.2-50.6,3.4-72.2-13.2
			c-28.5-22-38-51.5-30.9-86.2c6.6-31.9,32.6-56.9,65.3-62.1c24.8-3.9,47.9,0.9,67.3,18.2c4.7,4.2,4.6,4.3,0.3,8.7
			c-2.7,2.7-5.4,5.3-8.1,7.9C879.8,51.3,879.4,51.3,878.7,51.6z"/>
		<path class="st2" d="M1065,163.2c0,4.6,0,9.1,0,14.2c-5.8,0-11,0.1-16.2-0.1c-0.7,0-1.7-1.3-2.1-2.2c-0.4-1-0.1-2.3-0.1-3.5
			c0-49.1,0-98.1,0-147.2c0-5.8,0-5.8,5.6-5.8c3.3,0,6.7,0.1,10,0c2.8-0.1,3.9,0.9,3.8,3.8c-0.3,18.3-0.5,36.6-0.8,54.8
			c0,2,0,4,0,7.1c1.8-1.4,2.9-2,3.6-2.9c15.4-19.5,47-21.1,65.9-4.4c16.4,14.6,22.2,33,19.7,54.4c-2.4,20.3-12.3,35.4-30.5,44.7
			c-17.5,8.9-42.3,4.9-54.6-10.8c-0.8-1.1-2-1.9-3-2.8C1065.9,162.8,1065.5,163,1065,163.2z M1101.3,83.2
			c-12.9-0.1-22.3,5.1-29,14.7c-7.6,10.9-8.5,23.1-6.2,35.9c2.5,14.4,13.2,25.6,28.2,29.2c12.2,2.9,27-3.5,34.8-15
			c6.7-9.9,8.1-20.9,6.5-32.5C1132.7,94.9,1115.7,82.2,1101.3,83.2z"/>
		<path class="st2" d="M1001.2,161.5c-0.6,1.4-0.9,2.9-1.7,4c-9.9,12.3-22.8,16.3-38.2,14.9c-11.5-1.1-21.1-5.4-28.1-14.5
			c-13.3-17.2-7.1-42,12.6-52.3c11.2-5.8,23.3-7.1,35.5-5.8c6.4,0.7,12.7,2.8,18.8,4.7c3.2,1,3.8-0.1,3.9-2.9
			c0.6-12.5-10.7-25.1-23.9-26.2c-12.6-1.1-23.7,1.4-31,13.1c-0.5,0.7-2.3,1.3-3.2,1c-4.3-1.6-8.6-3.5-12.8-5.3
			c-2.8-1.2-1.6-3-0.6-4.6c6.3-9.9,14.7-17.3,26.3-20.1c15.5-3.7,30.6-2.7,44.4,6.1c11.7,7.5,18.2,18.5,18.5,32.2
			c0.5,22.5,0.2,45,0.3,67.5c0,3.3-1.3,4.4-4.4,4.1c-2.7-0.2-5.5-0.3-8.3,0c-4.1,0.4-5.9-0.9-5.4-5.3c0.3-3,0.1-6.1,0.1-9.2
			C1003,162.5,1002.1,162,1001.2,161.5z M969.5,163.9c15.8-0.6,30.3-12.2,34-27.6c1-4.2-0.1-6.8-4-8.8c-7.6-3.9-15.8-4.5-24.1-4.4
			c-6.6,0.1-13,1-18.7,4.8c-6.4,4.3-10.6,10-10.3,18c0.3,7.8,5.1,12.4,12,15.1C961.9,162.3,965.8,162.9,969.5,163.9z"/>
		<path class="st2" d="M1672.3,126.1c-12.8,0-25.5,0-38.3,0c-3,0-5.2,0.4-4.8,4.3c1.6,13.8,8.3,24.2,21,29.8
			c12.4,5.5,24.7,4.6,35.7-3.9c2.9-2.2,5.1-5.5,7.1-8.6c1.3-1.9,2.3-2.8,4.5-1.8c3.7,1.7,7.4,3.2,11.2,4.7c2.4,0.9,2.6,2.3,1.4,4.4
			c-8.5,14.6-20.8,23.3-37.9,25.2c-12.3,1.3-24.1,0.1-34.9-6.1c-16.8-9.7-25.4-24.7-27.3-44c-1.8-19.3,3.1-36.2,16.9-50.2
			c12.4-12.6,27.7-16.2,44.7-13.6c22,3.3,35.2,16.4,41.1,37.3c1.6,5.8,1.7,12,2.5,18c0.4,3.3-0.9,4.6-4.4,4.6
			C1698.1,126,1685.2,126.1,1672.3,126.1z M1662.1,111c9.4,0,18.8-0.1,28.2,0c3.4,0,4.9-1.2,3.9-4.7c-0.4-1.2-0.6-2.5-1.1-3.7
			c-5.7-12.9-15.1-20.6-35.2-19.2c-11.1,0.8-23.3,11.2-26.8,23.1c-1,3.3,0.1,4.5,3.5,4.5C1643.8,110.9,1652.9,111,1662.1,111z"/>
		<path class="st2" d="M1477.1,122.3c-0.5,25-10,43.8-32.3,53.6c-30.4,13.4-67.5-0.2-76.6-36.4c-6.4-25.4,1.2-50,21-64.1
			c29.2-20.8,77.8-9.7,86.5,34.6C1476.6,114.5,1476.7,119,1477.1,122.3z M1422.1,83.3c-12.8-0.3-22.2,5.2-29.4,14.8
			c-7.4,9.9-8.1,21.2-6.9,33.1c2.5,24.3,29.5,39.5,51.3,28.5c14.7-7.4,22.5-23.4,20.7-41.7C1455.5,95,1436.8,82.2,1422.1,83.3z"/>
		<path class="st2" d="M1280.1,122.3c-0.5,25.3-10.3,44.2-32.7,53.8c-30.1,12.9-66.7-0.1-76.1-36.2c-6.7-25.9,1.1-51.1,22.1-65.2
			c29.8-20,76.9-8,85.5,35.4C1279.6,114.6,1279.7,119.1,1280.1,122.3z M1225.1,83.3c-12.8-0.3-22.1,5.2-29.2,14.6
			c-7.6,10-8.4,21.4-7,33.5c2.8,24.6,29.9,39.3,51.8,28c14.6-7.6,22.2-24.4,20-42.4C1258.1,95.8,1240.5,82.1,1225.1,83.3z"/>
		<path class="st2" d="M1516,85c0.4-1.3,0.5-2.8,1.3-3.8c12.6-16,33.8-19.6,51.1-11.8c14.2,6.4,20.7,18.8,21.3,33.5
			c0.9,23.5,0.3,47,0.4,70.6c0,3-0.9,4.2-4,4.1c-3.5-0.2-7-0.3-10.4,0c-3.6,0.3-4.4-1.2-4.4-4.6c0.1-19.2,0.3-38.3-0.1-57.5
			c-0.1-6.3-1.2-12.8-3.3-18.6c-3.2-8.8-10.6-12.9-19.7-13.4c-20-1-33.9,12.4-34,32.6c-0.1,18.7-0.1,37.5,0.1,56.2
			c0,4.3-1.4,5.7-5.5,5.3c-3.3-0.3-6.7-0.2-10,0c-3.1,0.2-4-1.2-4-4.1c0.1-33.4,0.1-66.8,0-100.2c0-3.1,1.2-4.1,4.2-4
			c3.6,0.2,7.3,0.2,10.9,0c2.7-0.1,3.6,1,3.5,3.6c-0.1,3.4,0,6.9,0,10.3C1514.1,83.7,1515.1,84.3,1516,85z"/>
		<path class="st2" d="M1363.9,69c-2.3,5.6-4.3,10.7-6.7,15.6c-0.5,1-3.1,1.6-4.4,1.3c-21.2-4.2-36.6,14.4-35.8,33.4
			c0.7,17.4,0.2,34.8,0.2,52.3c0,5.9,0,5.9-6.1,5.9c-3,0-6.1-0.2-9.1,0c-3.3,0.2-4.3-1.1-4.3-4.3c0.1-15.5,0.1-31.1,0.1-46.6
			c0-17.6,0.1-35.1-0.1-52.7c0-3.6,1.2-5,4.8-4.7c4.3,0.3,10.1-1.3,12.5,1c2.3,2.1,1,8.1,1.3,12.4c0.1,1.1,0.3,2.2,1.2,3.8
			c4.7-8.2,11.3-13.9,19.8-17.3C1345.8,65.7,1354.4,65.5,1363.9,69z"/>
	</g>
</g>
<g id="XMLID_261_">
	<path id="XMLID_259_" class="st0" d="M32.3,0H0l92.3,160l16.2-28L32.3,0z"/>
	<path id="XMLID_258_" class="st0" d="M120.9,91L68.3,0H36.1l74.3,128.8l10.5-18.2c1.7-2.8,2.8-6.2,2.8-9.8
		C123.6,97.2,122.6,93.9,120.9,91L120.9,91z"/>
	<path id="XMLID_257_" class="st0" d="M56.3,104.1L0.9,200h32.3l39.3-68L56.3,104.1z"/>
	<path id="XMLID_256_" class="st0" d="M74.3,135.3L37,200h32.2l21.3-36.8L74.3,135.3L74.3,135.3z"/>
</g>
</svg>
